PathFileType	4	(X/Y/Z)	/Users/itak/Documents/Research/Walk-IL/dataset/trc/00306_00010.trc
DataRate	CameraRate	NumFrames	NumMarkers	Units	OrigDataRate	OrigDataStartFrame	OrigNumFrames
100.000000	100.000000	4	56	mm	100.000000	106	425
Frame#	Time	RPSI			LPSI			L3			STRN			T10			C7			CLAV			RBAK			LBAK			LSHO			LUPA			LAEL			LAOL			LWPS			LFRA			LIFD			LHPS			LHTS			RSHO			RUPA			RAEL			RAOL			RWTS			RWPS			RFRA			RIFD			RBHD			LFHD			RFHD			LBHD			LHIP			RASI			LASI			LKNE			LTHI			LANK			LTIP			LTOE			LMT1			LMT5			LHEE			RKNE			RTHI			RANK			RTIP			RTOE			RMT1			RMT5			LWTS			RHTS			RHPS			RHEE			RHIP			*53			*54			*55			
		X1	Y1	Z1	X2	Y2	Z2	X3	Y3	Z3	X4	Y4	Z4	X5	Y5	Z5	X6	Y6	Z6	X7	Y7	Z7	X8	Y8	Z8	X9	Y9	Z9	X10	Y10	Z10	X11	Y11	Z11	X12	Y12	Z12	X13	Y13	Z13	X14	Y14	Z14	X15	Y15	Z15	X16	Y16	Z16	X17	Y17	Z17	X18	Y18	Z18	X19	Y19	Z19	X20	Y20	Z20	X21	Y21	Z21	X22	Y22	Z22	X23	Y23	Z23	X24	Y24	Z24	X25	Y25	Z25	X26	Y26	Z26	X27	Y27	Z27	X28	Y28	Z28	X29	Y29	Z29	X30	Y30	Z30	X31	Y31	Z31	X32	Y32	Z32	X33	Y33	Z33	X34	Y34	Z34	X35	Y35	Z35	X36	Y36	Z36	X37	Y37	Z37	X38	Y38	Z38	X39	Y39	Z39	X40	Y40	Z40	X41	Y41	Z41	X42	Y42	Z42	X43	Y43	Z43	X44	Y44	Z44	X45	Y45	Z45	X46	Y46	Z46	X47	Y47	Z47	X48	Y48	Z48	X49	Y49	Z49	X50	Y50	Z50	X51	Y51	Z51	X52	Y52	Z52	X53	Y53	Z53	X54	Y54	Z54	X55	Y55	Z55	X56	Y56	Z56	

107	1.06	-1013.912414550781	980.8633422851562	877.405517578125	-987.593017578125	962.9263305664062	704.3633422851562	-979.7044677734375	1043.399047851562	803.756591796875	-716.8152465820312	1191.536376953125	803.21728515625	-983.8849487304688	1157.2255859375	811.6891479492188	-916.5161743164062	1395.140014648438	782.2633056640625	-768.3255004882812	1297.244995117188	790.5366821289062	-977.7998046875	1269.923950195312	869.8264770507812	-940.2069091796875	1352.162719726562	682.1309814453125	-852.7030639648438	1344.95068359375	624.427978515625	-912.0948486328125	1233.30419921875	563.8696899414062	-961.9734497070312	1039.000610351562	558.93408203125	-1003.367004394531	1035.712646484375	634.1739501953125	-1009.829406738281	806.8084716796875	538.0462036132812	-987.8954467773438	937.192626953125	548.0078735351562	-1029.821044921875	629.23681640625	590.6640625	-1040.114990234375	723.83056640625	541.6864624023438	-981.6287841796875	701.2371826171875	564.5503540039062	-842.4241943359375	1375.568115234375	940.7841186523438	-844.5889892578125	1317.114501953125	1011.357788085938	-822.9608764648438	1045.231079101562	1053.23046875	-891.2339477539062	1038.808471679688	988.5009155273438	-739.9985961914062	858.0620727539062	907.5031127929688	-732.7720336914062	830.9749755859375	988.0328369140625	-787.0167236328125	980.3037109375	1038.7373046875	-709.9228515625	683.0939331054688	852.2911376953125	-907.1351928710938	1535.978149414062	836.907958984375	-758.1461181640625	1596.758178710938	698.4273071289062	-752.3960571289062	1606.605102539062	790.333251953125	-914.2151489257812	1511.721069335938	692.6986083984375	-902.61962890625	914.5750122070312	625.9703369140625	-807.5173950195312	911.7886352539062	951.032958984375	-775.8914184570312	916.5949096679688	701.9165649414062	-670.2061157226562	496.9387817382812	687.82568359375	-737.4032592773438	620.3809204101562	651.4376831054688	-684.4890747070312	48.44344711303711	716.2582397460938	-671.7030029296875	261.974609375	691.2889404296875	-487.4638977050781	62.69895935058594	796.975830078125	-557.900146484375	42.03025817871094	829.0641479492188	-561.2008056640625	52.51217651367188	718.35986328125	-735.18115234375	38.87053680419922	770.0142822265625	-1040.70361328125	465.5490417480469	953.4285888671875	-934.021728515625	705.830322265625	995.2351684570312	-1285.552856445312	85.29586029052734	900.8245239257812	-1084.255737304688	348.1305847167969	936.5167846679688	-1095.16552734375	45.78263473510742	871.5926513671875	-1143.105346679688	53.00307464599609	823.9470825195312	-1192.744873046875	42.98943710327148	932.7196655273438	-957.0648803710938	799.2552490234375	586.666259765625	-689.7960205078125	753.465576171875	874.7431030273438	-700.2045288085938	731.6471557617188	941.36328125	-1331.06103515625	101.8071899414062	844.675537109375	-939.4042358398438	919.8216552734375	997.2276000976562	nan	nan	nan	nan	nan	nan	nan	nan	nan	
108	1.07	-1003.669799804688	982.1250610351562	876.8840942382812	-978.01123046875	964.8001098632812	703.7520141601562	-969.9923095703125	1044.841064453125	803.2048950195312	-707.8316040039062	1194.002685546875	801.103759765625	-974.7431030273438	1158.265502929688	810.8597412109375	-908.8616333007812	1396.403564453125	780.466552734375	-759.9564819335938	1299.521240234375	788.3956298828125	-969.005615234375	1271.18505859375	868.8173828125	-932.5645141601562	1353.083740234375	680.5262451171875	-845.213623046875	1346.332397460938	622.5986938476562	-903.7715454101562	1234.258544921875	562.200927734375	-952.480224609375	1039.718994140625	557.5611572265625	-993.6088256835938	1036.139892578125	632.8496704101562	-1000.321411132812	807.465087890625	536.7296142578125	-978.0072021484375	937.9791870117188	546.5879516601562	-1022.110717773438	630.283935546875	590.2581176757812	-1031.262329101562	724.771484375	540.6627807617188	-973.1111450195312	701.7017211914062	563.7979736328125	-833.9186401367188	1377.984741210938	938.7035522460938	-835.4979858398438	1319.730102539062	1009.495422363281	-814.218017578125	1047.85205078125	1051.326538085938	-882.0592651367188	1041.530151367188	986.1743774414062	-732.191650390625	857.7669067382812	908.6347045898438	-725.9216918945312	831.9729614257812	989.62060546875	-778.8384399414062	982.5330200195312	1037.727416992188	-704.3141479492188	681.3880615234375	856.7744750976562	-899.8475952148438	1537.709228515625	834.73291015625	-751.3683471679688	1598.546875	695.6760864257812	-745.3313598632812	1608.542846679688	787.5390014648438	-907.310791015625	1513.251220703125	690.5797119140625	-893.30419921875	916.8739013671875	624.6359252929688	-797.0014038085938	913.0614624023438	949.5128784179688	-766.4381103515625	918.4845581054688	700.138427734375	-663.625	496.9902648925781	686.737548828125	-729.6405639648438	621.3355102539062	650.1384887695312	-683.8948974609375	48.47776031494141	715.9281005859375	-667.590576171875	261.852294921875	690.660400390625	-486.7761535644531	60.34228515625	797.3057250976562	-557.56982421875	40.8598518371582	829.1783447265625	-560.5306396484375	51.0660400390625	718.4603271484375	-734.7606811523438	39.50817108154297	769.5678100585938	-1030.990112304688	466.6394958496094	953.3436889648438	-923.6519775390625	706.7677001953125	994.1576538085938	-1282.6650390625	90.19352722167969	901.8820190429688	-1076.496459960938	349.869873046875	937.1712036132812	-1094.69189453125	45.68564224243164	871.79248046875	-1141.829711914062	54.06983184814453	824.3389282226562	-1191.428588867188	44.22208786010742	933.323486328125	-947.4979858398438	799.6632690429688	585.3086547851562	-683.5032958984375	751.8816528320312	877.945068359375	-694.3904418945312	731.4324340820312	944.9429931640625	-1327.568969726562	108.7262649536133	845.9369506835938	-928.7730712890625	920.6907958984375	996.2131958007812	nan	nan	nan	nan	nan	nan	nan	nan	nan	
109	1.08	-993.3377075195312	983.5169677734375	876.2151489257812	-968.249755859375	966.8204345703125	703.0342407226562	-960.1632080078125	1046.454833984375	802.5193481445312	-698.820068359375	1196.725708007812	798.9189453125	-965.4465942382812	1159.450439453125	809.9599609375	-901.2318115234375	1397.806884765625	778.6376342773438	-751.5704956054688	1302.057495117188	786.1830444335938	-960.1354370117188	1272.554809570312	867.7337646484375	-924.9127197265625	1354.145263671875	678.8896484375	-837.7422485351562	1347.955688476562	620.7306518554688	-895.4850463867188	1235.504272460938	560.443115234375	-942.9981079101562	1040.682250976562	556.0711059570312	-983.8685302734375	1036.883544921875	631.3863525390625	-990.1744995117188	808.2338256835938	535.3097534179688	-967.9315795898438	938.9444580078125	545.0557250976562	-1013.245544433594	631.4244384765625	589.888427734375	-1021.491394042969	725.718994140625	539.5704345703125	-963.6629638671875	702.384765625	563.0665283203125	-825.4159545898438	1380.588989257812	936.5648193359375	-826.3713989257812	1322.58154296875	1007.590454101562	-805.4735107421875	1050.736328125	1049.57373046875	-872.8068237304688	1044.475830078125	983.8812255859375	-724.3331909179688	857.6422119140625	910.1475830078125	-719.2044067382812	833.2380981445312	991.5931396484375	-770.7196044921875	985.0218505859375	1036.944213867188	-698.8080444335938	679.8344116210938	861.9235229492188	-892.5247192382812	1539.663696289062	832.5576171875	-744.49609375	1600.479370117188	692.9588623046875	-738.183349609375	1610.6005859375	784.7814331054688	-900.3764038085938	1515.034790039062	688.4609985351562	-883.9157104492188	919.2574462890625	623.2100830078125	-786.427490234375	914.5637817382812	947.9642944335938	-756.8849487304688	920.4771728515625	698.3511352539062	-657.5797729492188	496.8516845703125	685.6170043945312	-722.1998291015625	622.0621948242188	648.832275390625	-683.4035034179688	48.47733306884766	715.6221923828125	-664.1362915039062	261.6622924804688	690.0079956054688	-486.2382507324219	58.35820007324219	797.5578002929688	-557.2808837890625	39.95227813720703	829.2779541015625	-559.9725952148438	49.87813949584961	718.4950561523438	-734.3909912109375	39.99665832519531	769.1719360351562	-1020.467529296875	467.6701965332031	953.3528442382812	-912.8812866210938	707.8283081054688	993.0523071289062	-1279.330688476562	95.36139678955078	902.7821655273438	-1068.027099609375	351.620361328125	937.952880859375	-1094.30419921875	45.59452819824219	871.987548828125	-1140.349975585938	55.18241500854492	824.7675170898438	-1189.961059570312	45.58839416503906	933.9208374023438	-937.369140625	800.3870849609375	583.933837890625	-677.2401733398438	750.4129028320312	881.7485961914062	-688.7771606445312	731.451416015625	949.10400390625	-1323.409423828125	116.0732879638672	847.0767211914062	-918.071533203125	921.782958984375	995.1246948242188	nan	nan	nan	nan	nan	nan	nan	nan	nan	
110	1.09	-982.9682006835938	985.0248413085938	875.3848876953125	-958.3615112304688	968.9829711914062	702.1895141601562	-950.2530517578125	1048.225463867188	801.66552734375	-689.7911376953125	1199.626708984375	796.6956787109375	-956.0150146484375	1160.750122070312	808.9566040039062	-893.6202392578125	1399.310546875	776.7745361328125	-743.1624755859375	1304.781616210938	783.9190673828125	-951.2149658203125	1273.991821289062	866.5433959960938	-917.2488403320312	1355.309936523438	677.2175903320312	-830.2713623046875	1349.752685546875	618.8325805664062	-887.240478515625	1236.971435546875	558.6084594726562	-933.5213012695312	1041.8271484375	554.4581909179688	-974.16552734375	1037.869506835938	629.7904052734375	-979.428466796875	809.0573120117188	533.788818359375	-957.708740234375	940.022216796875	543.4169921875	-1003.1767578125	632.569091796875	589.4992065429688	-1010.828369140625	726.5994262695312	538.4005737304688	-953.2728271484375	703.2350463867188	562.3181762695312	-816.9488525390625	1383.316772460938	934.378173828125	-817.2762451171875	1325.601440429688	1005.648986816406	-796.7210693359375	1053.829956054688	1048.004760742188	-863.5180053710938	1047.581420898438	981.6856079101562	-716.4847412109375	857.6747436523438	912.0176391601562	-712.5888061523438	834.74560546875	993.9135131835938	-762.6322631835938	987.7329711914062	1036.390502929688	-693.3831787109375	678.4764404296875	867.6283569335938	-885.1725463867188	1541.80029296875	830.3888549804688	-737.5406494140625	1602.51513671875	690.2840576171875	-730.9617309570312	1612.736083984375	782.0696411132812	-893.4158935546875	1517.031494140625	686.3470458984375	-874.447021484375	921.7415161132812	621.698974609375	-775.8638916015625	916.2893676757812	946.3993530273438	-747.2728271484375	922.5347290039062	696.576416015625	-652.0626220703125	496.5537109375	684.507080078125	-715.081298828125	622.5988159179688	647.5470581054688	-683.0162353515625	48.45145034790039	715.3531494140625	-661.2813720703125	261.4278564453125	689.35498046875	-485.8280639648438	56.69677352905273	797.7738647460938	-557.0479125976562	39.24382019042969	829.3916015625	-559.5158081054688	48.93667984008789	718.4978637695312	-734.0846557617188	40.34164810180664	768.8355102539062	-1009.0751953125	468.5895080566406	953.4964599609375	-901.73095703125	708.979736328125	991.92578125	-1275.48681640625	100.808967590332	903.4891357421875	-1058.794311523438	353.3354187011719	938.8698120117188	-1094.019653320312	45.50495910644531	872.1517333984375	-1138.660888671875	56.30233001708984	825.2096557617188	-1188.330932617188	47.11922836303711	934.4898681640625	-926.7073974609375	801.3773803710938	582.5349731445312	-671.0068359375	749.1048583984375	886.0791625976562	-683.30859375	731.7196655273438	953.7542724609375	-1318.493408203125	123.8479766845703	848.0551147460938	-907.3632202148438	923.0802612304688	993.9544677734375	nan	nan	nan	nan	nan	nan	nan	nan	nan	
